<svg id="Layer_1" data-name="Layer 1" xmlns="http://www.w3.org/2000/svg" viewBox="0 0 500 201"><defs><style>.cls-1{fill:#ffc000;}.cls-2{fill:#fff;}</style></defs><path class="cls-1" d="M139.59,171.08l-7.33-2.77-1.81,8.55,5.08-.67Z"/><path class="cls-1" d="M500,201.3c98.77,6.17,100,20.75,120.47,31.7,7.05-31.53,18.7-95.94,8.87-101.37-12.28-6.79-75.86,9.82-155.5,17.73s-131.37-3.36-210.51-2c-63.32,1.1-112,19.77-128.35,29,38.76-6.15,65.95-22.1,158.71,3.73C381.3,204.48,441.68,197.65,500,201.3Z"/><path class="cls-2" d="M128.68,140.78c2.41,4.85,5.57,15.83,4.58,25.13l7.17,2.7c5.39-7.64,15-13.8,20-15.84Z"/><path class="cls-2" d="M151.79,35.13H179a3.38,3.38,0,0,1,3.38,3.38V148a0,0,0,0,1,0,0h-34a0,0,0,0,1,0,0V38.5a3.38,3.38,0,0,1,3.38-3.38Z" transform="translate(42.95 -52.48) rotate(20.66)"/></svg>