<svg id="Layer_1" data-name="Layer 1" xmlns="http://www.w3.org/2000/svg" viewBox="0 0 500 201"><defs><style>.cls-1{fill:#fefefe;}.cls-2{fill:#fdc014;}</style></defs><path class="cls-1" d="M257,165.62H200.1c-1.51,0-1.5,0-1.5-1.45q0-18.61,0-37.25c0-1-.19-1.27-1.22-1.21a57.1,57.1,0,0,1-10.21-.22c-2.8-.33-3.13-.76-2.17-3.38C187.28,115.9,190.15,110,193,104c1.75-3.72,3.56-7.4,5.37-11.09a3.68,3.68,0,0,0,.33-1.5A57.34,57.34,0,0,1,215.25,53a56.33,56.33,0,0,1,30.58-16.52c15.09-2.83,29.27-.29,42.29,7.93a58.33,58.33,0,0,1,27.27,51.07c0,.71.05,1.42.05,2.13q0,33.36,0,66.72c0,1.13-.34,1.33-1.38,1.32Q285.56,165.6,257,165.62Z"/><path class="cls-2" d="M283.52,81.28c1.41,0,2.82,0,4.23,0,.75,0,1.08.16,1.07,1,0,3.11-.06,6.23,0,9.34,0,.77-.34.91-1,.9q-6.47,0-12.94,0c-.33,0-.87-.24-.95.26,0,.32.47.49.78.67,4.23,2.41,8.46,4.84,12.72,7.21.73.4.51.85.27,1.28-1.51,2.69-3.07,5.35-4.59,8-.32.55-.49.79-1.24.35-5.73-3.31-11.51-6.53-17.26-9.8-.84-.48-1.05-.3-1,.57s0,1.8,0,2.7-.28,1-1,1a26.07,26.07,0,0,1-9-2,1.81,1.81,0,0,0-2,.18,16.91,16.91,0,0,1-6.14,2.38,21.86,21.86,0,0,1-6.7.4,19.64,19.64,0,0,1-16-10c-1.68-2.82-.25-6.15,2.62-7.58s5.56-2.73,8.36-4a7.79,7.79,0,0,0,.86-.61c-3.85-2.23-7.61-4.43-11.41-6.55-.58-.33-.55-.47-.26-1,1.58-2.75,3.15-5.49,4.64-8.29.47-.89,1-.42,1.69-.27a6.2,6.2,0,0,1,.47-5.42,5.81,5.81,0,0,1,5.52-2.52c1.61.4,3.26.38,4.89.65,3,.51,6.16.68,9.23,1.08,1.14.15,2.28.34,3.44.45.77.06,1-.18,1.12-1a60.71,60.71,0,0,0,.14-6.18c0-.74.14-1.07,1-1.06,3.11,0,6.23,0,9.34,0,.72,0,.94.22.94,1a66.77,66.77,0,0,1-.4,7.74c-.1.89.25,1.16,1.11,1.24,3.38.29,6.76.76,10.12,1.23,2.88.4,5.79.62,8.68,1a43.06,43.06,0,0,1,5.53.79,5.31,5.31,0,0,1,4.11,4.85,5.14,5.14,0,0,1-2.67,5.22c-2.33,1.37-4.72,2.66-7.13,3.92-.39.21-.65.61-1.17.59Zm-30.9-7.74c.06-.45,0-.73-.51-.8-2.59-.27-5.18-.67-7.77-.85-.68,0-1.63-.82-2,0-.31.64.43,1.43.68,2.17.07.23.18.47.27.71a2.26,2.26,0,0,0,1.07,1.33c2.12,1.18,4.24,2.36,6.32,3.59.54.31.66.18.82-.34C252,77.47,252.1,75.44,252.62,73.54Zm18.24,1.61c-2.36-.33-4.42-.6-6.47-.9-.41-.06-.75.09-.76.45-.06,1.57-.72,3.08-.61,4.72ZM238.21,94.22a8.28,8.28,0,0,0,2.71.31c.37,0,.89.12,1-.22s-.35-.65-.55-1c-.29-.48-.67-.37-1.06-.18l-2.15,1.07Z"/></svg>