<svg id="Layer_1" data-name="Layer 1" xmlns="http://www.w3.org/2000/svg" viewBox="0 0 500 201"><defs><style>.cls-1{fill:#ffc000;}.cls-2{fill:#1d1d1b;}</style></defs><path class="cls-1" d="M500-9.31c98.77,6.17,100,20.75,120.47,31.7C627.48-9.14,639.13-73.55,629.3-79,617-85.77,553.44-69.16,473.8-61.25s-131.37-3.35-210.51-2c-63.32,1.1-112,19.77-128.35,29,38.76-6.14,65.95-22.1,158.71,3.73C381.3-6.13,441.68-13,500-9.31Z"/><path class="cls-2" d="M250.43,51a49.51,49.51,0,1,0,49.51,49.51A49.51,49.51,0,0,0,250.43,51Zm24.51,44.53c-9,1-18.19-5.81-20.18-14.61a10.46,10.46,0,0,1-.29-3.1A12,12,0,0,1,265.4,65.49c6.47-.65,11.62,1.88,15.91,6.47A16.48,16.48,0,0,1,286,83.62,12.18,12.18,0,0,1,274.94,95.55Z"/><rect class="cls-1" x="180.19" y="97.4" width="140.49" height="6.25"/><path class="cls-2" d="M152.25,61.71V45.49a8.71,8.71,0,0,1,8.7-8.7h16.22v-6H161a14.7,14.7,0,0,0-14.7,14.7V61.71Z"/><path class="cls-2" d="M152.25,155.51V139.29h-6v16.22a14.7,14.7,0,0,0,14.7,14.7h16.22v-6H161A8.71,8.71,0,0,1,152.25,155.51Z"/><path class="cls-2" d="M348.62,139.29v16.22a8.71,8.71,0,0,1-8.7,8.7H323.7v6h16.22a14.7,14.7,0,0,0,14.7-14.7V139.29Z"/><path class="cls-2" d="M348.62,45.49V61.71h6V45.49a14.7,14.7,0,0,0-14.7-14.7H323.7v6h16.22A8.71,8.71,0,0,1,348.62,45.49Z"/></svg>